<?xml version="1.0" encoding="utf-8"?>
<!-- Generator: Adobe Illustrator 21.1.0, SVG Export Plug-In . SVG Version: 6.00 Build 0)  -->
<svg version="1.1" id="Layer_1" xmlns="http://www.w3.org/2000/svg" xmlns:xlink="http://www.w3.org/1999/xlink" x="0px" y="0px"
	 viewBox="0 0 89.3 60.9" style="enable-background:new 0 0 89.3 60.9;" xml:space="preserve">
<style type="text/css">
	.st0{fill:#FFFFFF;}
</style>
<g>
	<path class="st0" d="M88.4,1c-0.8-0.8-2-1.2-3.2-1L71.3,2.2c-2.1,0.3-3.8,2.1-3.8,4c0,0.8,0.3,1.6,0.9,2.2c0.8,0.8,2,1.2,3.2,1
		l3.3-0.5c0,0.7,0,1.5,0,1.5l-0.5,34c0,1.1,0.3,2.1,1,2.8c0.6,0.6,1.3,0.9,2.1,0.9c0.1,0,0.3,0,0.4,0c0,0,0,0,0,0
		c1.8-0.3,3.3-2.2,3.3-4.3l0.6-35.9l3.7-0.6c2.1-0.3,3.8-2.1,3.8-4C89.3,2.4,89,1.6,88.4,1z"/>
	<path class="st0" d="M68.7,41.9l-10.8,1.7l0.6-35.2c0-1.1-0.4-2.1-1-2.8c-0.7-0.7-1.6-1-2.5-0.8C53.1,5,51.7,6.9,51.6,9L51,47.6
		c0,1,0.3,1.9,1,2.6c0.6,0.7,1.5,1,2.5,1c0,0,0,0,0,0c0.2,0,0.4,0,0.6,0L69,49c2.1-0.3,3.8-2.1,3.8-4c0-0.8-0.3-1.6-0.9-2.2
		C71.2,42.1,70,41.7,68.7,41.9z"/>
	<path class="st0" d="M18.4,11.8L1.7,14.4c-0.6,0.1-1,0.6-1,1.1L0,59.7c0,0.3,0.1,0.7,0.4,0.9c0.2,0.2,0.5,0.3,0.8,0.3
		c0.1,0,0.1,0,0.2,0L18,58.3c2.1-0.3,3.8-2.3,3.8-4.4l0.2-15.3c0,0,0-0.1,0-0.1c-0.1-1.6-0.6-2.6-1.1-3.2c0.5-0.7,1-1.9,1.2-3.8
		c0,0,0-0.1,0-0.1l0.3-16c0-1-0.3-1.9-1-2.6C20.7,12,19.6,11.6,18.4,11.8z M13.8,39.3c0.4-0.1,0.8,0,1.1,0.3
		c0.2,0.2,0.3,0.6,0.3,0.9l-0.1,9.2c0,1-0.9,2-1.9,2.2l-6.3,1l0.2-12.6L13.8,39.3l-0.2-1.1L13.8,39.3z M13.5,32.2l-6.3,1l0.2-12.6
		l6.7-1c0.4-0.1,0.8,0,1.1,0.3c0.2,0.2,0.3,0.6,0.3,0.9l-0.1,9.2C15.4,31,14.5,32.1,13.5,32.2z"/>
	<path class="st0" d="M43.5,7.1L29.6,9.3c-2.1,0.3-3.8,2.3-3.8,4.4l-0.6,38.5c0,1,0.3,1.9,1,2.6c0.6,0.7,1.5,1,2.5,1
		c0.2,0,0.4,0,0.6,0l13.9-2.2c2.1-0.3,3.8-2.3,3.8-4.4l0.6-38.5c0-1-0.3-1.9-1-2.6C45.8,7.3,44.7,6.9,43.5,7.1z M40.7,16.2
		l-0.5,28.9c0,1-0.9,2-1.9,2.2L33.5,48c0,0,0,0,0,0c-0.4,0.1-0.8-0.1-1.1-0.3c-0.2-0.2-0.3-0.6-0.3-0.9l0.5-28.9c0-1,0.9-2,1.9-2.1
		l4.8-0.7c0.4-0.1,0.8,0,1.1,0.3C40.6,15.5,40.7,15.8,40.7,16.2z"/>
</g>
</svg>
