<?xml version="1.0" encoding="utf-8"?>
<!-- Generator: Adobe Illustrator 21.1.0, SVG Export Plug-In . SVG Version: 6.00 Build 0)  -->
<svg version="1.1" id="Layer_1" xmlns="http://www.w3.org/2000/svg" xmlns:xlink="http://www.w3.org/1999/xlink" x="0px" y="0px"
	 viewBox="0 0 170.8 76.5" style="enable-background:new 0 0 170.8 76.5;" xml:space="preserve">
<style type="text/css">
	.st0{fill:none;}
	.st1{fill:#FFFFFF;}
	.st2{opacity:0.75;fill:#FFFFFF;}
</style>
<g>
	<path class="st0" d="M26.7,58.9l10.1,11.5c0.8,0.9,1.3,0.4,1.7,0.1l0.2-0.2c0.2-0.2,0.5-0.5,0.5-0.7c0-0.4-0.3-0.9-0.4-0.9
		L28.3,56.8l-0.8,1L26.7,58.9z"/>
	<path class="st0" d="M6.2,20.9l-0.2,0.2c-0.3,0.3-0.9,0.8-0.1,1.7l10.2,11.6l0.2-0.3l1.3-2L7.9,21C7.1,20.2,6.6,20.6,6.2,20.9z"/>
	<path class="st0" d="M26.8,17.8L16.5,6.1c-0.8-0.9-1.3-0.4-1.7-0.1l-0.2,0.2c-0.3,0.3-0.9,0.8-0.1,1.7l10.7,12.3l0.4-0.6L26.8,17.8
		z"/>
	<polygon class="st0" points="32.2,36.4 30.2,34.1 29.6,34.9 28.6,36.2 29.8,37.6 31.3,36.8 	"/>
	<path class="st0" d="M36.9,45.7l8.2,9.4c0.8,0.9,1.3,0.4,1.7,0.1l0.2-0.2c0.3-0.3,0.9-0.8,0.1-1.7l-8.5-9.8l-0.6,0.8L36.9,45.7z"/>
	<polygon class="st0" points="28.1,47.6 28.1,47.5 27.7,47.6 27.9,47.9 	"/>
	<polygon class="st0" points="21.8,51.1 20.6,51.8 23.3,55 24.1,53.8 24.8,52.7 22.9,50.5 	"/>
	<g>
		<path class="st1" d="M39.5,33.4c-0.6-0.1-1.2,0.1-1.8,0.3l-0.3,0.2l-1.5,0.7l-3.7,1.8l-5.9,2.8l3.9-5.1l-8-9.2l-6.1,9.4l11.6,13.3
			l0.2,0.2l3.8,4.4l6.7-8.7l2.4-3.2l1-1.3L42,39c0.8-1,0.9-2.4,0.4-3.6C41.8,34.3,40.8,33.5,39.5,33.4z"/>
		<path class="st1" d="M24.1,53.8L23.3,55l-2,3.1l-1.2,1.8l-8.3,13.5c-0.4,0.6-0.2,1.4,0.3,1.8c0.2,0.1,0.4,0.2,0.6,0.2
			c0.4,0,0.9-0.1,1.1-0.5l9.2-11.5l1.3-1.7l2.2-2.8l0.9-1.1l0.8-1l-3.5-4L24.1,53.8z"/>
		<path class="st1" d="M45.6,1.4c-1-0.6-2.1-1-3.2-1.1c-2.6-0.2-5.1,1-6.5,3.2L25.3,20.1l8.3,9.5l13.7-18.1c0.1-0.1,0.2-0.3,0.3-0.5
			C49.8,7.8,48.9,3.5,45.6,1.4z M42.5,9.3c-0.1,0.2-0.2,0.4-0.3,0.5l-7,9.1l-1.7,2.2c-0.2,0.3-0.5,0.4-0.8,0.4
			c-0.2,0-0.4-0.1-0.5-0.2c-0.4-0.3-0.6-0.9-0.3-1.3l1.7-3l5.4-9.4c0.3-0.7,1.1-1.2,1.9-1.1c0.3,0,0.5,0.1,0.8,0.2
			c0.5,0.2,0.9,0.6,1.1,1.1C42.8,8.3,42.7,8.8,42.5,9.3z"/>
		<path class="st1" d="M22.9,50.5L13,39.3L6.5,49.5l-0.2,0.2c-1,1.5-1,3.4-0.1,5c0.8,1.3,2.2,2.2,3.7,2.3c1,0.1,2-0.1,2.8-0.6
			L22.9,50.5z"/>
	</g>
	<g>
		<path class="st2" d="M41.4,30.3c1.2-1,1.3-2.8,0.3-3.9l-3-3.4l-1.6,2.2l-1.8,2.4l2.2,2.6C38.5,31.2,40.3,31.3,41.4,30.3z"/>
		<polygon class="st2" points="26.3,39.3 29.2,37.9 29.8,37.6 28.6,36.2 28.2,36.7 		"/>
		<path class="st2" d="M22.2,24.9l8,9.2l2,2.3l3.7-1.8l1.5-0.7l-3.8-4.3l-8.3-9.5L14.6,7.8c-0.8-0.9-0.2-1.4,0.1-1.7L14.9,6
			c0.4-0.3,0.9-0.8,1.7,0.1l10.2,11.7l1.6-2.5l1.5-2.3L20.7,2.4C20.4,2.1,18.7,0.2,16,0c-1.2-0.1-3,0.2-4.8,1.8L11,1.9
			C9.2,3.5,8.7,5.3,8.6,6.5c-0.2,2.7,1.4,4.6,1.7,5L22.2,24.9z"/>
		<polygon class="st2" points="20.6,51.8 17.5,53.6 15.7,54.7 20.2,59.9 21.3,58.1 23.3,55 		"/>
		<path class="st2" d="M31.8,52.3l-3.8-4.4l-0.2-0.2L16.1,34.4L6,22.8c-0.8-0.9-0.2-1.4,0.1-1.7l0.2-0.2c0.4-0.3,0.9-0.8,1.7,0.1
			l9.7,11.1l0,0l2.7-4.3l0.4-0.6l-8.6-9.8c-0.3-0.4-2-2.2-4.7-2.4c-1.2-0.1-3,0.2-4.8,1.8l-0.2,0.2c-1.8,1.6-2.3,3.4-2.4,4.6
			c-0.2,2.7,1.4,4.6,1.7,5L13,39.3l9.8,11.2l1.9,2.2l3.5,4l10.4,11.9c0,0,0.4,0.6,0.4,0.9c0,0.2-0.3,0.5-0.5,0.7l-0.2,0.2
			c-0.4,0.3-0.9,0.8-1.7-0.1L26.7,58.9l-2.2,2.8l-1.3,1.7L32.6,74c0.3,0.4,2,2.2,4.6,2.4c0,0,0.1,0,0.1,0c1.2,0.1,3-0.2,4.8-1.7
			l0.2-0.2c1.8-1.6,2.3-3.4,2.4-4.6c0.2-2.7-1.4-4.6-1.7-5L31.8,52.3z"/>
		<path class="st2" d="M51.2,49.7l-9.3-10.6l-1,1.3l-2.4,3.2l8.5,9.8c0.8,0.9,0.2,1.4-0.1,1.7l-0.2,0.2c-0.4,0.3-0.9,0.8-1.7-0.1
			l-8.2-9.4l-0.4,0.5l-3,3.9l0,0l7.5,8.5c0.3,0.4,2,2.3,4.7,2.4c1.2,0.1,3-0.2,4.8-1.8l0.2-0.2c1.8-1.6,2.3-3.4,2.4-4.6
			C53.1,51.9,51.5,50,51.2,49.7z"/>
	</g>
</g>
<path class="st0" d="M26.9,59.1L37,70.6c0.8,0.9,1.3,0.4,1.7,0.1l0.2-0.2c0.2-0.2,0.5-0.5,0.5-0.7c0-0.4-0.3-0.9-0.4-0.9L28.5,57
	l-0.8,1L26.9,59.1z"/>
<path class="st0" d="M6.4,21.1l-0.2,0.2C5.9,21.6,5.4,22,6.2,23l10.2,11.6l0.2-0.3l1.3-2L8.1,21.2C7.3,20.4,6.8,20.8,6.4,21.1z"/>
<path class="st0" d="M27,18L16.7,6.3c-0.8-0.9-1.3-0.4-1.7-0.1l-0.2,0.2C14.5,6.6,14,7.1,14.8,8l10.7,12.3l0.4-0.6L27,18z"/>
<polygon class="st0" points="32.4,36.6 30.4,34.3 29.8,35.1 28.8,36.4 30,37.8 31.5,37.1 "/>
<path class="st0" d="M37.1,45.9l8.2,9.4c0.8,0.9,1.3,0.4,1.7,0.1l0.2-0.2c0.3-0.3,0.9-0.8,0.1-1.7l-8.5-9.8l-0.6,0.8L37.1,45.9z"/>
<polygon class="st0" points="28.3,47.8 28.3,47.7 27.9,47.9 28.1,48.1 "/>
<polygon class="st0" points="22,51.4 20.8,52.1 23.5,55.2 24.3,54 25,52.9 23,50.7 "/>
<g>
	<path class="st1" d="M169.9,6.8c-0.8-0.8-2-1.2-3.2-1L152.8,8c-2.1,0.3-3.8,2.1-3.8,4c0,0.8,0.3,1.6,0.9,2.2c0.8,0.8,2,1.2,3.2,1
		l3.3-0.5c0,0.7,0,1.5,0,1.5l-0.5,34c0,1.1,0.3,2.1,1,2.8c0.6,0.6,1.3,0.9,2.1,0.9c0.1,0,0.3,0,0.4,0c0,0,0,0,0,0
		c1.8-0.3,3.3-2.2,3.3-4.3l0.6-35.9l3.7-0.6c2.1-0.3,3.8-2.1,3.8-4C170.8,8.1,170.5,7.4,169.9,6.8z"/>
	<path class="st1" d="M150.2,47.7l-10.8,1.7l0.6-35.2c0-1.1-0.4-2.1-1-2.8c-0.7-0.7-1.6-1-2.5-0.8c-1.8,0.3-3.3,2.2-3.3,4.3
		l-0.6,38.5c0,1,0.3,1.9,1,2.6c0.6,0.7,1.5,1,2.5,1c0,0,0,0,0,0c0.2,0,0.4,0,0.6,0l13.9-2.2c2.1-0.3,3.8-2.1,3.8-4
		c0-0.8-0.3-1.6-0.9-2.2C152.7,47.8,151.5,47.5,150.2,47.7z"/>
	<path class="st1" d="M99.9,17.6l-16.7,2.6c-0.6,0.1-1,0.6-1,1.1l-0.7,44.2c0,0.3,0.1,0.7,0.4,0.9c0.2,0.2,0.5,0.3,0.8,0.3
		c0.1,0,0.1,0,0.2,0l16.7-2.6c2.1-0.3,3.8-2.3,3.8-4.4l0.2-15.3c0,0,0-0.1,0-0.1c-0.1-1.6-0.6-2.6-1.1-3.2c0.5-0.7,1-1.9,1.2-3.8
		c0,0,0-0.1,0-0.1l0.3-16c0-1-0.3-1.9-1-2.6C102.2,17.8,101.1,17.4,99.9,17.6z M95.3,45.1c0.4-0.1,0.8,0,1.1,0.3
		c0.2,0.2,0.3,0.6,0.3,0.9l-0.1,9.2c0,1-0.9,2-1.9,2.2l-6.3,1l0.2-12.6L95.3,45.1l-0.2-1.1L95.3,45.1z M95,38l-6.3,1L89,26.4l6.7-1
		c0.4-0.1,0.8,0,1.1,0.3c0.2,0.2,0.3,0.6,0.3,0.9l-0.1,9.2C96.9,36.8,96,37.8,95,38z"/>
	<path class="st1" d="M125,12.9L111.1,15c-2.1,0.3-3.8,2.3-3.8,4.4L106.7,58c0,1,0.3,1.9,1,2.6c0.6,0.7,1.5,1,2.5,1
		c0.2,0,0.4,0,0.6,0l13.9-2.2c2.1-0.3,3.8-2.3,3.8-4.4l0.6-38.5c0-1-0.3-1.9-1-2.6C127.3,13.1,126.2,12.7,125,12.9z M122.2,21.9
		l-0.5,28.9c0,1-0.9,2-1.9,2.2l-4.8,0.7c0,0,0,0,0,0c-0.4,0.1-0.8-0.1-1.1-0.3c-0.2-0.2-0.3-0.6-0.3-0.9l0.5-28.9c0-1,0.9-2,1.9-2.1
		l4.8-0.7c0.4-0.1,0.8,0,1.1,0.3C122.1,21.2,122.2,21.6,122.2,21.9z"/>
</g>
</svg>
