<?xml version="1.0" encoding="utf-8"?>
<!-- Generator: Adobe Illustrator 21.1.0, SVG Export Plug-In . SVG Version: 6.00 Build 0)  -->
<svg version="1.1" id="Layer_1" xmlns="http://www.w3.org/2000/svg" xmlns:xlink="http://www.w3.org/1999/xlink" x="0px" y="0px"
	 viewBox="0 0 178.6 121.8" style="enable-background:new 0 0 178.6 121.8;" xml:space="preserve">
<style type="text/css">
	.st0{fill:#EE456C;}
</style>
<g>
	<path class="st0" d="M176.9,2c-1.6-1.6-4-2.3-6.5-1.9l-27.8,4.3c-4.2,0.7-7.6,4.1-7.7,7.9c0,1.6,0.6,3.2,1.7,4.3
		c1.6,1.6,4,2.3,6.5,1.9l6.6-1c0,1.5,0,2.9,0,2.9l-1.1,68.1c0,2.2,0.7,4.2,2.1,5.6c1.1,1.1,2.6,1.8,4.1,1.8c0.3,0,0.6,0,0.9-0.1
		c0,0,0,0,0.1,0c3.6-0.6,6.5-4.4,6.6-8.6l1.1-71.8l7.4-1.1c4.2-0.7,7.6-4.1,7.7-7.9C178.6,4.7,178,3.2,176.9,2z"/>
	<path class="st0" d="M137.4,83.8l-21.6,3.3l1.1-70.4c0-2.2-0.7-4.2-2.1-5.6c-1.3-1.4-3.1-2-5-1.7c-3.6,0.6-6.5,4.4-6.6,8.6
		L102,95.1c0,2,0.7,3.8,2,5.2c1.3,1.3,3.1,2,5,2h0c0.4,0,0.8,0,1.2-0.1L138,98c4.2-0.7,7.6-4.1,7.7-7.9c0-1.6-0.6-3.2-1.7-4.3
		C142.4,84.1,140,83.4,137.4,83.8z"/>
	<path class="st0" d="M36.8,23.6L3.4,28.8c-1.1,0.2-1.9,1.1-2,2.3L0,119.5c0,0.7,0.3,1.3,0.8,1.8c0.4,0.4,1,0.6,1.5,0.6
		c0.1,0,0.2,0,0.4,0l33.4-5.2c4.2-0.7,7.6-4.5,7.7-8.8l0.5-30.6c0-0.1,0-0.2,0-0.3c-0.3-3.2-1.1-5.2-2.1-6.5c1.1-1.5,2-3.9,2.3-7.5
		c0-0.1,0-0.1,0-0.2l0.5-32c0-2-0.7-3.8-2-5.2C41.4,23.9,39.1,23.2,36.8,23.6z M27.6,78.6c0.9-0.1,1.7,0.1,2.2,0.6
		c0.5,0.5,0.7,1.1,0.7,1.9l-0.3,18.4c0,2-1.8,4-3.7,4.3l-12.5,1.9l0.4-25.1L27.6,78.6l-0.4-2.3L27.6,78.6z M27.1,64.4l-12.5,1.9
		l0.4-25.1l13.3-2.1c0.9-0.1,1.7,0.1,2.2,0.6c0.5,0.5,0.7,1.1,0.7,1.9l-0.3,18.4C30.8,62.1,29,64.1,27.1,64.4z"/>
	<path class="st0" d="M87,14.2l-27.8,4.3c-4.2,0.7-7.6,4.5-7.7,8.8l-1.2,77.1c0,2,0.7,3.8,2,5.2c1.3,1.3,3.1,2,5,2
		c0.4,0,0.8,0,1.2-0.1l27.8-4.3c4.2-0.7,7.6-4.5,7.7-8.8l1.2-77.1c0-2-0.7-3.8-2-5.2C91.7,14.6,89.4,13.9,87,14.2z M81.4,32.3
		l-0.9,57.9c0,2-1.8,4-3.7,4.3L67.1,96c0,0,0,0,0,0c-0.9,0.1-1.6-0.1-2.1-0.6c-0.5-0.5-0.7-1.1-0.7-1.9l0.9-57.9c0-2,1.8-4,3.7-4.3
		l9.6-1.5c0.9-0.1,1.7,0.1,2.2,0.6C81.2,30.9,81.4,31.5,81.4,32.3z"/>
</g>
</svg>
