<svg id="Layer_1" data-name="Layer 1" xmlns="http://www.w3.org/2000/svg" viewBox="0 0 341.22 152.92"><defs><style>.cls-1{fill:none;}.cls-2{fill:#ee456c;}.cls-3{fill:#2a8eb9;}.cls-4{fill:#9454a0;}</style></defs><title>logo-full-color</title><path class="cls-1" d="M53.42,117.73l20.16,23c1.62,1.74,2.62.86,3.35.23l.38-.33a2.54,2.54,0,0,0,1-1.41,3.77,3.77,0,0,0-.73-1.88L56.65,113.53l-1.53,2Z"/><path class="cls-1" d="M12.47,41.83l-.36.31c-.68.59-1.72,1.51-.18,3.38L32.29,68.78l.41-.64,2.52-3.93L15.82,42.06C14.2,40.32,13.2,41.19,12.47,41.83Z"/><path class="cls-1" d="M53.58,35.57,33.08,12.15c-1.61-1.74-2.62-.86-3.35-.22l-.34.3c-.69.61-1.73,1.52-.2,3.39L50.65,40.14,51.36,39Z"/><polygon class="cls-1" points="64.46 72.82 60.44 68.22 59.24 69.79 57.22 72.45 59.59 75.16 62.65 73.69 64.46 72.82"/><path class="cls-1" d="M73.73,91.32l16.42,18.76c1.62,1.73,2.62.86,3.35.23l.36-.32c.67-.59,1.71-1.5.17-3.37L77,87.11l-1.2,1.56Z"/><polygon class="cls-1" points="56.29 95.11 56.13 94.92 55.49 95.29 55.88 95.74 56.29 95.11"/><polygon class="cls-1" points="43.53 102.28 41.12 103.69 46.65 110 48.2 107.6 49.59 105.46 45.7 101.01 43.53 102.28"/><path class="cls-2" d="M23.75,146.74a2.62,2.62,0,0,0,.69,3.56,2.61,2.61,0,0,0,3.58-.54l18.48-23-6.15-7Z"/><polygon class="cls-2" points="46.65 110 53.42 117.73 55.12 115.52 56.65 113.53 49.59 105.46 48.2 107.6 46.65 110"/><path class="cls-2" d="M84,78a6.92,6.92,0,0,0-8.48-10.47l-.64.31,9,10.3Z"/><path class="cls-3" d="M70.54,54.95,75,60.07a5.57,5.57,0,0,0,8.38-7.33l-6-6.84-3.29,4.32Z"/><polygon class="cls-3" points="60.44 68.22 64.46 72.82 71.78 69.3 74.87 67.81 67.32 59.18 65.28 61.87 60.44 68.22"/><polygon class="cls-3" points="56.42 73.5 52.6 78.52 58.38 75.74 59.59 75.16 57.22 72.45 56.42 73.5"/><path class="cls-3" d="M50.65,40.14,29.19,15.61c-1.54-1.87-.49-2.78.2-3.39l.34-.3c.73-.64,1.74-1.52,3.35.22l20.5,23.43,3.27-5.1,3-4.67L41.5,4.85A14.59,14.59,0,0,0,32.08,0a13.06,13.06,0,0,0-9.69,3.52l-.34.3A13.05,13.05,0,0,0,17.29,13a14.39,14.39,0,0,0,3.49,9.93l23.62,27L48.8,43Z"/><polygon class="cls-3" points="46.65 110 41.12 103.69 34.95 107.29 31.33 109.4 40.35 119.71 42.67 116.12 46.65 110"/><path class="cls-3" d="M56.65,113.53l20.87,23.86a3.77,3.77,0,0,1,.73,1.88,2.54,2.54,0,0,1-1,1.41l-.38.33c-.73.64-1.72,1.51-3.35-.23l-20.16-23-4.37,5.68-2.56,3.33,18.67,21.33a14.46,14.46,0,0,0,9.24,4.81h.18a13,13,0,0,0,9.64-3.49l.38-.33a13,13,0,0,0,4.76-9.12,14.42,14.42,0,0,0-3.5-9.94l-22.3-25.48L58,111.83Z"/><polygon class="cls-3" points="45.7 101.01 49.59 105.46 50.78 103.62 55.88 95.74 55.49 95.29 47.55 99.94 45.7 101.01"/><path class="cls-3" d="M32.29,68.78,11.93,45.52c-1.54-1.87-.5-2.79.18-3.38l.36-.31c.73-.64,1.72-1.51,3.35.23l19.4,22.16,0-.07,5.48-8.56.72-1.13L24.23,34.76a14.21,14.21,0,0,0-9.42-4.83,13,13,0,0,0-9.67,3.51l-.36.31A13.06,13.06,0,0,0,0,42.88a14.42,14.42,0,0,0,3.5,9.94L26,78.54l1.18-1.84Z"/><path class="cls-3" d="M102.44,99.31,83.89,78.11l-2.05,2.67L77,87.11,94,106.61c1.54,1.87.5,2.78-.17,3.37l-.36.32c-.73.63-1.73,1.51-3.35-.23L73.73,91.32l-.8,1-6.07,7.89,0,.06,14.92,17.05a14.05,14.05,0,0,0,9.41,4.82,13,13,0,0,0,9.66-3.5l.37-.32a13.06,13.06,0,0,0,4.77-9.13A14.41,14.41,0,0,0,102.44,99.31Z"/><polygon class="cls-4" points="64.46 72.82 76.97 87.11 81.83 80.78 83.89 78.11 74.87 67.81 71.78 69.3 64.46 72.82"/><polygon class="cls-4" points="50.78 103.62 49.59 105.46 56.65 113.53 57.95 111.83 63.58 104.53 55.88 95.74 50.78 103.62"/><path class="cls-2" d="M91.23,2.78A14,14,0,0,0,71.88,7L50.65,40.14l16.67,19L94.81,23.05c.22-.29.44-.61.65-.92A14,14,0,0,0,91.23,2.78ZM85.05,18.62a4,4,0,0,1-.67,1L70.3,37.77l-3.44,4.42A2,2,0,0,1,63.57,40L67,34,77.78,15.25a4,4,0,0,1,7.27,3.37Z"/><polygon class="cls-4" points="53.42 117.73 46.65 110 42.67 116.12 40.35 119.71 46.49 126.73 49.05 123.41 53.42 117.73"/><polygon class="cls-2" points="64.46 72.82 52.6 78.52 60.44 68.22 44.4 49.9 32.29 68.78 55.49 95.29 55.88 95.74 63.58 104.53 76.97 87.11 64.46 72.82"/><polygon class="cls-4" points="65.28 61.87 67.32 59.18 50.65 40.14 48.8 43.03 44.4 49.9 60.44 68.22 65.28 61.87"/><path class="cls-2" d="M26,78.54,12.91,99l-.31.49a9.53,9.53,0,0,0,12.83,13.36L45.7,101Z"/><polygon class="cls-4" points="47.55 99.94 55.49 95.29 32.29 68.78 27.21 76.7 26.04 78.54 45.7 101.01 47.55 99.94"/><path class="cls-2" d="M339.5,13.15A7.43,7.43,0,0,0,333,11.23l-27.78,4.3c-4.23.66-7.59,4.14-7.66,7.93a6,6,0,0,0,1.73,4.34,7.43,7.43,0,0,0,6.49,1.92l6.64-1c0,1.45,0,2.94,0,2.94L311.3,99.69a7.72,7.72,0,0,0,2.07,5.62,5.78,5.78,0,0,0,4.14,1.76,6.16,6.16,0,0,0,.85-.06h.06c3.63-.56,6.52-4.36,6.59-8.64l1.13-71.79,7.42-1.15c4.24-.66,7.6-4.14,7.66-7.93A6,6,0,0,0,339.5,13.15Z"/><path class="cls-2" d="M300.09,94.92l-21.61,3.35,1.11-70.42a7.72,7.72,0,0,0-2.07-5.61,5.75,5.75,0,0,0-5-1.69c-3.63.56-6.52,4.36-6.59,8.64l-1.22,77.08a7.15,7.15,0,0,0,2,5.19,6.93,6.93,0,0,0,5,2h0a7.94,7.94,0,0,0,1.2-.09l27.78-4.3c4.23-.66,7.59-4.13,7.66-7.93a6,6,0,0,0-1.73-4.34A7.43,7.43,0,0,0,300.09,94.92Z"/><path class="cls-2" d="M199.4,34.7,166,39.88a2.32,2.32,0,0,0-2,2.25l-1.4,88.45a2.32,2.32,0,0,0,2.32,2.36l.35,0,33.4-5.17a9.27,9.27,0,0,0,7.67-8.81l.48-30.62a2.46,2.46,0,0,0,0-.25,12.52,12.52,0,0,0-2.11-6.47c1.1-1.49,2-3.85,2.33-7.53,0-.06,0-.12,0-.18l.5-32a7,7,0,0,0-8.2-7.14Zm-9.14,55a2.45,2.45,0,0,1,2.18.63,2.52,2.52,0,0,1,.67,1.86l-.29,18.45a4.71,4.71,0,0,1-3.75,4.3l-12.54,1.94.39-25.12,13.32-2.06-.35-2.29Zm-.56-14.18-12.54,1.94.4-25.12,13.32-2.06a2.45,2.45,0,0,1,2.18.62,2.53,2.53,0,0,1,.67,1.87l-.29,18.45A4.71,4.71,0,0,1,189.7,75.53Z"/><path class="cls-2" d="M249.67,25.36l-27.78,4.3a9.26,9.26,0,0,0-7.67,8.81L213,115.54a7.16,7.16,0,0,0,2,5.19,6.94,6.94,0,0,0,5,2,7.94,7.94,0,0,0,1.2-.09l27.78-4.3a9.27,9.27,0,0,0,7.67-8.81l1.22-77.08a7,7,0,0,0-8.2-7.14ZM244,43.43l-.91,57.87a4.71,4.71,0,0,1-3.74,4.3l-9.63,1.49h0a2.43,2.43,0,0,1-2.14-.63,2.52,2.52,0,0,1-.67-1.86l.91-57.87a4.71,4.71,0,0,1,3.74-4.3l9.63-1.49a2.44,2.44,0,0,1,2.18.62A2.53,2.53,0,0,1,244,43.43Z"/></svg>